<?xml version="1.0" encoding="UTF-8"?>
<svg id="Layer_1" data-name="Layer 1" xmlns="http://www.w3.org/2000/svg" viewBox="0 0 106.73 85.41">
  <defs>
    <style>
      .cls-1 {
        fill: #92c3d3;
      }

      .cls-1, .cls-2 {
        stroke: #110b1a;
      }

      .cls-1, .cls-2, .cls-3 {
        stroke-miterlimit: 10;
        stroke-width: 3px;
      }

      .cls-2 {
        fill: #1d306a;
      }

      .cls-3 {
        fill: #110b1a;
        stroke: #1d306a;
        stroke-linecap: round;
      }
    </style>
  </defs>
  <path class="cls-2" d="m31.34,56.17c-1.4-.01-5.77-1.39-6.99-2.09-2.95-1.7-4.98-4.4-5.73-10.17-.36-2.8.38-5.4.64-6.31.45-1.52,1.6-5.25,5.15-7.98,1.76-1.35,3.71-2.85,6.05-2.58.87.1,1.81.45,2.19,0,.41-.49-.32-1.35-.64-2.7-.7-2.88,1.01-5.63,1.67-6.7.45-.73,1.22-1.93,2.7-2.96,1.94-1.35,3.86-1.52,4.25-1.55.7-.05,2.75-.11,4.76,1.03,1.6.91,2.22,2.03,3.09,1.8.74-.2,1.05-1.2,1.16-1.55,0,0,.96-2.91,5.67-8.5,2.82-3.35,7.36-3.92,9.92-4.25,1.44-.18,9.78-1.24,16.1,5.02,6.11,6.07,5.36,14.93,5.15,16.1-.03.19-.25,1.26-.26,2.7,0,1.49-.11,1.84.13,2.06.57.53,1.88-.26,3.09-.64,2.66-.83,5.18.19,6.95.9,5.11,2.06,7.23,6.88,7.73,8.11.59,1.48,1.84,5.27.52,9.79-1.46,4.98-5.24,7.57-6.95,8.76-.02.01-.03.02-.05.04-2.22,1.53-4.89,2.28-7.58,2.25l-58.71-.59Z"/>
  <path class="cls-1" d="m11.77,65.78c-1.12-.01-4.62-1.11-5.6-1.67-2.36-1.36-3.99-3.53-4.59-8.14-.29-2.25.3-4.33.52-5.05.36-1.21,1.28-4.21,4.13-6.4,1.41-1.08,2.97-2.29,4.85-2.06.7.08,1.45.36,1.75,0,.33-.39-.25-1.08-.52-2.17-.56-2.31.81-4.51,1.34-5.36.36-.59.98-1.55,2.17-2.37,1.56-1.08,3.09-1.21,3.4-1.24.56-.04,2.2-.09,3.82.83,1.28.73,1.78,1.63,2.48,1.44.59-.16.84-.96.93-1.24,0,0,.77-2.33,4.54-6.81,2.26-2.68,5.89-3.14,7.94-3.4,1.16-.15,7.84-1,12.9,4.02,4.89,4.86,4.29,11.96,4.13,12.9-.03.15-.2,1.01-.21,2.17,0,1.19-.09,1.48.1,1.65.46.42,1.5-.21,2.48-.52,2.13-.67,4.15.15,5.57.72,4.09,1.65,5.79,5.51,6.19,6.5.47,1.18,1.48,4.22.41,7.84-1.17,3.99-4.2,6.06-5.57,7.01-.01,0-.03.02-.04.03-1.78,1.22-3.92,1.82-6.08,1.8l-47.03-.48Z"/>
  <line class="cls-3" x1="17.82" y1="62.61" x2="14.58" y2="69.89"/>
  <line class="cls-3" x1="29.04" y1="63.56" x2="27.76" y2="66.43"/>
  <line class="cls-3" x1="41.27" y1="62.9" x2="39.08" y2="67.84"/>
  <line class="cls-3" x1="37.66" y1="71.73" x2="36.73" y2="73.82"/>
  <line class="cls-3" x1="12.78" y1="73.82" x2="10.41" y2="79.14"/>
  <line class="cls-3" x1="26.57" y1="70.78" x2="23.4" y2="77.9"/>
  <line class="cls-3" x1="54.71" y1="63.46" x2="50.7" y2="72.5"/>
  <line class="cls-3" x1="48.21" y1="77.42" x2="45.33" y2="83.91"/>
</svg>