<?xml version="1.0" encoding="UTF-8"?>
<svg id="Layer_1" data-name="Layer 1" xmlns="http://www.w3.org/2000/svg" viewBox="0 0 129.99 116.88">
  <defs>
    <style>
      .cls-1, .cls-2 {
        fill: #1b538d;
        stroke: #110b1a;
        stroke-miterlimit: 10;
      }

      .cls-2 {
        stroke-width: 3px;
      }
    </style>
  </defs>
  <path class="cls-2" d="m20.27,81.57c-2.06-.02-8.45-2.03-10.23-3.06-4.32-2.49-7.3-6.45-8.4-14.89-.53-4.11.55-7.91.94-9.24.65-2.22,2.35-7.7,7.54-11.69,2.58-1.98,5.43-4.18,8.86-3.77,1.27.15,2.65.66,3.21,0,.6-.72-.47-1.98-.94-3.96-1.02-4.22,1.49-8.25,2.45-9.81.66-1.07,1.79-2.83,3.96-4.34,2.85-1.97,5.65-2.22,6.22-2.26,1.03-.08,4.03-.16,6.98,1.51,2.34,1.33,3.26,2.98,4.53,2.64,1.08-.29,1.53-1.76,1.7-2.26,0,0,1.4-4.25,8.3-12.45,4.13-4.9,10.78-5.75,14.52-6.22,2.12-.27,14.33-1.82,23.57,7.36,8.95,8.88,7.85,21.86,7.54,23.57-.05.28-.37,1.84-.38,3.96-.01,2.18-.16,2.7.19,3.02.83.77,2.75-.38,4.53-.94,3.89-1.22,7.59.27,10.18,1.32,7.49,3.02,10.59,10.08,11.32,11.88.87,2.16,2.7,7.72.75,14.33-2.14,7.29-7.67,11.09-10.18,12.82-.03.02-.05.03-.08.05-3.26,2.24-7.16,3.34-11.11,3.3l-85.99-.87Z"/>
  <path class="cls-1" d="m28.06,86.04c-2.82,1.6-5.64,3.2-8.45,4.81-.01,0-.02.01-.04.02-.33.23-2.78,2.05-2.5,4.16.33,2.53,4.38,4.02,6.88,3.33,3.15-.87,5.46-5.67,4.77-11.99-.03-.31-.38-.48-.65-.33Z"/>
  <path class="cls-1" d="m91.55,102.12c-2.82,1.6-5.64,3.2-8.45,4.81-.01,0-.02.01-.04.02-.33.23-2.78,2.05-2.5,4.16.33,2.53,4.38,4.02,6.88,3.33,3.15-.87,5.46-5.67,4.77-11.99-.03-.31-.38-.48-.65-.33Z"/>
  <path class="cls-1" d="m58.53,86.04c-2.82,1.6-5.64,3.2-8.45,4.81-.01,0-.02.01-.04.02-.33.23-2.78,2.05-2.5,4.16.33,2.53,4.38,4.02,6.88,3.33,3.15-.87,5.46-5.67,4.77-11.99-.03-.31-.38-.48-.65-.33Z"/>
  <path class="cls-1" d="m83.55,86.04c-2.82,1.6-5.64,3.2-8.45,4.81-.01,0-.02.01-.04.02-.33.23-2.78,2.05-2.5,4.16.33,2.53,4.38,4.02,6.88,3.33,3.15-.87,5.46-5.67,4.77-11.99-.03-.31-.38-.48-.65-.33Z"/>
  <path class="cls-1" d="m108.57,86.04c-2.82,1.6-5.64,3.2-8.45,4.81-.01,0-.02.01-.04.02-.33.23-2.78,2.05-2.5,4.16.33,2.53,4.38,4.02,6.88,3.33,3.15-.87,5.46-5.67,4.77-11.99-.03-.31-.38-.48-.65-.33Z"/>
  <path class="cls-1" d="m66.63,103.9c-2.82,1.6-5.64,3.2-8.45,4.81-.01,0-.02.01-.04.02-.33.23-2.78,2.05-2.5,4.16.33,2.53,4.38,4.02,6.88,3.33,3.15-.87,5.46-5.67,4.77-11.99-.03-.31-.38-.48-.65-.33Z"/>
  <path class="cls-1" d="m39.84,102.12c-2.82,1.6-5.64,3.2-8.45,4.81-.01,0-.02.01-.04.02-.33.23-2.78,2.05-2.5,4.16.33,2.53,4.38,4.02,6.88,3.33,3.15-.87,5.46-5.67,4.77-11.99-.03-.31-.38-.48-.65-.33Z"/>
</svg>