<?xml version="1.0" encoding="UTF-8"?>
<svg id="Layer_1" data-name="Layer 1" xmlns="http://www.w3.org/2000/svg" viewBox="0 0 95.38 84.03">
  <defs>
    <style>
      .cls-1, .cls-2 {
        fill: #1b538d;
        stroke: #110b1a;
      }

      .cls-1, .cls-2, .cls-3 {
        stroke-miterlimit: 10;
      }

      .cls-2 {
        stroke-width: 3px;
      }

      .cls-3 {
        fill: #f2d90e;
        stroke: #231f20;
      }
    </style>
  </defs>
  <polygon class="cls-3" points="73.32 55.92 68.81 65.11 73.61 65.11 70.84 72.05 81.07 62.45 77.49 62.57 81.07 55.92 73.32 55.92"/>
  <polygon class="cls-3" points="15.44 43.87 10.93 53.06 15.73 53.06 12.96 60 23.19 50.4 19.61 50.52 23.19 43.87 15.44 43.87"/>
  <path class="cls-1" d="m26.88,60.65l-4.41,2.51s-.01,0-.02.01c-.19.14-1.63,1.2-1.47,2.44.19,1.48,2.56,2.35,4.03,1.95,1.74-.48,3.03-2.99,2.85-6.37-.03-.48-.55-.78-.97-.54Z"/>
  <path class="cls-1" d="m67.05,74.46l-4.41,2.51s-.01,0-.02.01c-.19.14-1.63,1.2-1.47,2.44.19,1.48,2.56,2.35,4.03,1.95,1.74-.48,3.03-2.99,2.85-6.37-.03-.48-.55-.78-.97-.54Z"/>
  <path class="cls-1" d="m45.03,68.71l-4.41,2.51s-.01,0-.02.01c-.19.14-1.63,1.2-1.47,2.44.19,1.48,2.56,2.35,4.03,1.95,1.74-.48,3.03-2.99,2.85-6.37-.03-.48-.55-.78-.97-.54Z"/>
  <path class="cls-1" d="m59.88,64.32l-4.41,2.51s-.01,0-.02.01c-.19.14-1.63,1.2-1.47,2.44.19,1.48,2.56,2.35,4.03,1.95,1.74-.48,3.03-2.99,2.85-6.37-.03-.48-.55-.78-.97-.54Z"/>
  <path class="cls-1" d="m53.23,76.52l-4.41,2.51s-.01,0-.02.01c-.19.14-1.63,1.2-1.47,2.44.19,1.48,2.56,2.35,4.03,1.95,1.74-.48,3.03-2.99,2.85-6.37-.03-.48-.55-.78-.97-.54Z"/>
  <path class="cls-1" d="m30.33,72.85l-4.41,2.51s-.01,0-.02.01c-.19.14-1.63,1.2-1.47,2.44.19,1.48,2.56,2.35,4.03,1.95,1.74-.48,3.03-2.99,2.85-6.37-.03-.48-.55-.78-.97-.54Z"/>
  <path class="cls-2" d="m11.77,45.3c-1.12-.01-4.62-1.11-5.6-1.67-2.36-1.36-3.99-3.53-4.59-8.14-.29-2.25.3-4.33.52-5.05.36-1.21,1.28-4.21,4.13-6.4,1.41-1.08,2.97-2.29,4.85-2.06.7.08,1.45.36,1.75,0,.33-.39-.25-1.08-.52-2.17-.56-2.31.81-4.51,1.34-5.36.36-.59.98-1.55,2.17-2.37,1.56-1.08,3.09-1.21,3.4-1.24.56-.04,2.2-.09,3.82.83,1.28.73,1.78,1.63,2.48,1.44.59-.16.84-.96.93-1.24,0,0,.77-2.33,4.54-6.81,2.26-2.68,5.89-3.14,7.94-3.4,1.16-.15,7.84-1,12.9,4.02,4.89,4.86,4.29,11.96,4.13,12.9-.03.15-.2,1.01-.21,2.17,0,1.19-.09,1.48.1,1.65.46.42,1.5-.21,2.48-.52,2.13-.67,4.15.15,5.57.72,4.09,1.65,5.79,5.51,6.19,6.5.47,1.18,1.48,4.22.41,7.84-1.17,3.99-4.2,6.06-5.57,7.01-.01,0-.03.02-.04.03-1.78,1.22-3.92,1.82-6.08,1.8l-47.03-.48Z"/>
  <path class="cls-2" d="m34.68,58.13c-1.12-.01-4.62-1.11-5.6-1.67-2.36-1.36-3.99-3.53-4.59-8.14-.29-2.25.3-4.33.52-5.05.36-1.21,1.28-4.21,4.13-6.4,1.41-1.08,2.97-2.29,4.85-2.06.7.08,1.45.36,1.75,0,.33-.39-.25-1.08-.52-2.17-.56-2.31.81-4.51,1.34-5.36.36-.59.98-1.55,2.17-2.37,1.56-1.08,3.09-1.21,3.4-1.24.56-.04,2.2-.09,3.82.83,1.28.73,1.78,1.63,2.48,1.44.59-.16.84-.96.93-1.24,0,0,.77-2.33,4.54-6.81,2.26-2.68,5.89-3.14,7.94-3.4,1.16-.15,7.84-1,12.9,4.02,4.89,4.86,4.29,11.96,4.13,12.9-.03.15-.2,1.01-.21,2.17,0,1.19-.09,1.48.1,1.65.46.42,1.5-.21,2.48-.52,2.13-.67,4.15.15,5.57.72,4.09,1.65,5.79,5.51,6.19,6.5.47,1.18,1.48,4.22.41,7.84-1.17,3.99-4.2,6.06-5.57,7.01-.01,0-.03.02-.04.03-1.78,1.22-3.92,1.82-6.08,1.8l-47.03-.48Z"/>
  <polygon class="cls-3" points="43.03 50.55 38.52 59.74 43.32 59.74 40.55 66.67 50.78 57.08 47.2 57.19 50.78 50.55 43.03 50.55"/>
</svg>